<svg id="svg" xmlns="http://www.w3.org/2000/svg" width="16" height="16">
    <mask id="cutout" fill="#fff">
        <path d="M0,0 h16 v13.9 l-2.7,-5.9 h-2.7 a1.5,1.5 90 0 0 -1.5,1.5 a1.5,1.5 90 0 0 1.5,1.5 h0.8 L8.8,16 h-9.3 z"/>
    </mask>
    <g fill="none" fill-rule="evenodd"  mask="url(#cutout)">
        <path fill="#F4AF3D" fill-opacity=".6" d="M15,8 C15,11.866 11.866,15 8,15 C4.134,15 1,11.866 1,8 C1,4.134 4.134,1 8,1 C11.866,1 15,4.134 15,8"/>
        <path fill="#231F20" fill-opacity=".7" d="M2.2939,6 L-0.0001,0 L1.2,0 C2.3886,3.13933333 2.98856667,4.73933333 2.9999,4.8 L4.8,0 L5.9999,0 L3.7059,6 L2.2939,6 Z" transform="translate(5 5)"/>
    </g>
    <g transform="translate(10,9)">
        <polygon id="letter" fill="#499C54" points="2.724 0 1 0 1 1 2 1 2.4 2 0 7 1.2 7 3 3.2 4.8 7 6 7"/>
        <circle cx="0.5" cy="0.5" r="0.6" fill="#9AA7B0" fill-opacity="0.8"/>
    </g>
</svg>