<svg id="svg" xmlns="http://www.w3.org/2000/svg" xmlns:xlink="http://www.w3.org/1999/xlink" width="16" height="16"
     viewBox="0, 0, 256,256">
    <mask id="cutout" fill="#fff">
        <path d="M  0   , 0
                 h 16
                 v       12.2
                 l -1.44,-3.3
c-0.45,-1 -0.95,-1 -1.46,-1
                 h -2.2
c -1,0.1 -1.5,0.6  -1.6 , 1.6
c 0.1,1 0.6,1.5  1.6 , 1.6
                 h 1.1
                 L  10.2    16
                 h -9.3
                 z"/>
    </mask>
    <g fill="none" fill-rule="evenodd" transform="scale(16)" mask="url(#cutout)">
        <path fill="#F98B9E" fill-opacity=".6" d="M15,8 C15,11.866 11.866,15 8,15 C4.134,15 1,11.866 1,8 C1,4.134 4.134,1 8,1 C11.866,1 15,4.134 15,8"/>
        <path fill="#231F20" fill-opacity=".7" d="M1,8 L2,8 L2,4 L3.5,4 L3.5,3 L2,3 C1.99687783,2.36169171 1.99509925,2.02835838 1.99466424,2 C1.98704681,1.50341351 2.13289549,1.0728225 2.43221029,0.972167969 C2.91964141,0.808253079 3.56884985,1.02114795 3.68984985,1.06414795 L3.98519897,0.226043701 C3.90948298,0.198825534 3.4559021,0 2.81140137,0 C2.16690063,1.40512602e-16 1.81677246,0.0614013672 1.4818929,0.388793945 C1.16513106,0.698473875 1.01614114,1.22015248 1.00124609,2 C1.00039414,2.04460465 0.999980878,2.95274463 1,3 C1.00000736,3.01819872 0.666674031,3.01819872 0,3 L0,3.972 L1,3.972 L1,8 Z" transform="translate(6 4)"/>
    </g>
    <g transform="translate(24, 0)">
        <path id="letter" fill="#499C54"
              stroke="#499C54"
              stroke-width="4"
              d=" M231 256
                  h-18
                  l-18 -50
                  l-18  50
                  l-18   0
                  l 27 -75
    c-7 -20 -7 -20 -22 -20
                  l  0 -16
         c28 0 28 0 37  28
                  l 27  75
                  z"/>
        <circle cx="152" cy="152" r="12" fill="#fff" fill-opacity="0.6"/>
    </g>
</svg>