<svg id="svg" xmlns="http://www.w3.org/2000/svg" xmlns:xlink="http://www.w3.org/1999/xlink" width="16" height="16"
     viewBox="0, 0, 256,256">
    <mask id="cutout" fill="#fff">
        <path d="M  0   , 0
                 h 16
                 v       12.2
                 l -1.44,-3.3
c-0.45,-1 -0.95,-1 -1.46,-1
                 h -2.2
c -1,0.1 -1.5,0.6  -1.6 , 1.6
c 0.1,1 0.6,1.5  1.6 , 1.6
                 h 1.1
                 L  10.2    16
                 h -9.3
                 z"/>
    </mask>
    <g fill="none" fill-rule="evenodd" transform="scale(16)" mask="url(#cutout)">
        <path fill="#F4AF3D" fill-opacity=".6" d="M15,8 C15,11.866 11.866,15 8,15 C4.134,15 1,11.866 1,8 C1,4.134 4.134,1 8,1 C11.866,1 15,4.134 15,8"/>
        <path fill="#231F20" fill-opacity=".7" d="M2.2939,6 L-0.0001,0 L1.2,0 C2.3886,3.13933333 2.98856667,4.73933333 2.9999,4.8 L4.8,0 L5.9999,0 L3.7059,6 L2.2939,6 Z" transform="translate(5 5)"/>
    </g>
    <g transform="translate(24, 0)">
        <path id="letter" fill="#499C54"
              stroke="#499C54"
              stroke-width="4"
              d=" M231 256
                  h-18
                  l-18 -50
                  l-18  50
                  l-18   0
                  l 27 -75
    c-7 -20 -7 -20 -22 -20
                  l  0 -16
         c28 0 28 0 37  28
                  l 27  75
                  z"/>
        <circle cx="152" cy="152" r="11" fill="#fff" fill-opacity="0.7"/>
    </g>
</svg>