<svg id="svg" xmlns="http://www.w3.org/2000/svg" width="16" height="16">
    <mask id="cutout" fill="#fff">
        <path d="M0,0 h16 v13.9 l-2.7,-5.9 h-2.7 a1.5,1.5 90 0 0 -1.5,1.5 a1.5,1.5 90 0 0 1.5,1.5 h0.8 L8.8,16 h-9.3 z"/>
    </mask>
    <g fill="none" fill-rule="evenodd" fill-opacity="0.8" mask="url(#cutout)">
        <polygon fill="#9AA7B0" points="7 1 3 5 7 5"/>
        <polygon fill="#9AA7B0" points="8 1 8 6 3 6 3 15 13 15 13 1"/>
    </g>
    <g transform="translate(10,9)">
        <polygon id="letter" fill="#499C54" points="2.724 0 1 0 1 1 2 1 2.4 2 0 7 1.2 7 3 3.2 4.8 7 6 7"/>
        <circle cx="0.5" cy="0.5" r="0.6" fill="#9AA7B0" fill-opacity="0.8"/>
    </g>
</svg>